<svg width="367" height="54" viewBox="0 0 367 54" fill="none" xmlns="http://www.w3.org/2000/svg">
<path d="M36.57 4.554V36.846H28.704V17.48L21.482 36.846H15.134L7.866 17.434V36.846H0V4.554H9.292L18.354 26.91L27.324 4.554H36.57Z" fill="white"/>
<path d="M68.4466 11.178L52.3466 49.036H43.8826L49.7706 35.972L39.3286 11.178H48.1146L54.0486 27.232L59.9366 11.178H68.4466Z" fill="white"/>
<path d="M91.531 4.554V26.542C91.531 29.946 90.565 32.568 88.633 34.408C86.7317 36.248 84.1557 37.168 80.905 37.168C77.501 37.168 74.7717 36.202 72.717 34.27C70.6624 32.338 69.635 29.5933 69.635 26.036H77.455C77.455 27.3853 77.731 28.4127 78.283 29.118C78.835 29.7927 79.6324 30.13 80.675 30.13C81.6257 30.13 82.3617 29.8233 82.883 29.21C83.4044 28.5967 83.665 27.7073 83.665 26.542V4.554H91.531Z" fill="white"/>
<path d="M96.3208 23.966C96.3208 21.3287 96.8114 19.0133 97.7928 17.02C98.8048 15.0267 100.169 13.4933 101.887 12.42C103.604 11.3467 105.521 10.81 107.637 10.81C109.446 10.81 111.025 11.178 112.375 11.914C113.755 12.65 114.813 13.616 115.549 14.812V11.178H123.415V36.846H115.549V33.212C114.782 34.408 113.709 35.374 112.329 36.11C110.979 36.846 109.4 37.214 107.591 37.214C105.505 37.214 103.604 36.6773 101.887 35.604C100.169 34.5 98.8048 32.9513 97.7928 30.958C96.8114 28.934 96.3208 26.6033 96.3208 23.966ZM115.549 24.012C115.549 22.0493 114.997 20.5007 113.893 19.366C112.819 18.2313 111.501 17.664 109.937 17.664C108.373 17.664 107.039 18.2313 105.935 19.366C104.861 20.47 104.325 22.0033 104.325 23.966C104.325 25.9287 104.861 27.4927 105.935 28.658C107.039 29.7927 108.373 30.36 109.937 30.36C111.501 30.36 112.819 29.7927 113.893 28.658C114.997 27.5233 115.549 25.9747 115.549 24.012Z" fill="white"/>
<path d="M161.857 10.902C165.047 10.902 167.577 11.868 169.447 13.8C171.349 15.732 172.299 18.4153 172.299 21.85V36.846H164.479V22.908C164.479 21.252 164.035 19.9793 163.145 19.09C162.287 18.17 161.091 17.71 159.557 17.71C158.024 17.71 156.813 18.17 155.923 19.09C155.065 19.9793 154.635 21.252 154.635 22.908V36.846H146.815V22.908C146.815 21.252 146.371 19.9793 145.481 19.09C144.623 18.17 143.427 17.71 141.893 17.71C140.36 17.71 139.149 18.17 138.259 19.09C137.401 19.9793 136.971 21.252 136.971 22.908V36.846H129.105V11.178H136.971V14.398C137.769 13.3247 138.811 12.4813 140.099 11.868C141.387 11.224 142.844 10.902 144.469 10.902C146.401 10.902 148.119 11.316 149.621 12.144C151.155 12.972 152.351 14.1527 153.209 15.686C154.099 14.2753 155.31 13.1253 156.843 12.236C158.377 11.3467 160.048 10.902 161.857 10.902Z" fill="white"/>
<path d="M201.997 23.598C201.997 24.334 201.951 25.1007 201.859 25.898H184.057C184.179 27.4927 184.685 28.7193 185.575 29.578C186.495 30.406 187.614 30.82 188.933 30.82C190.895 30.82 192.26 29.992 193.027 28.336H201.399C200.969 30.0227 200.187 31.5407 199.053 32.89C197.949 34.2393 196.553 35.2973 194.867 36.064C193.18 36.8307 191.294 37.214 189.209 37.214C186.694 37.214 184.455 36.6773 182.493 35.604C180.53 34.5307 178.997 32.9973 177.893 31.004C176.789 29.0107 176.237 26.68 176.237 24.012C176.237 21.344 176.773 19.0133 177.847 17.02C178.951 15.0267 180.484 13.4933 182.447 12.42C184.409 11.3467 186.663 10.81 189.209 10.81C191.693 10.81 193.901 11.3313 195.833 12.374C197.765 13.4167 199.267 14.904 200.341 16.836C201.445 18.768 201.997 21.022 201.997 23.598ZM193.947 21.528C193.947 20.1787 193.487 19.1053 192.567 18.308C191.647 17.5107 190.497 17.112 189.117 17.112C187.798 17.112 186.679 17.4953 185.759 18.262C184.869 19.0287 184.317 20.1173 184.103 21.528H193.947Z" fill="white"/>
<path d="M214.012 30.774H224.316V36.846H206.146V4.554H214.012V30.774Z" fill="white"/>
<path d="M232.024 8.51C230.644 8.51 229.51 8.11133 228.62 7.314C227.762 6.486 227.332 5.474 227.332 4.278C227.332 3.05134 227.762 2.03933 228.62 1.242C229.51 0.414 230.644 0 232.024 0C233.374 0 234.478 0.414 235.336 1.242C236.226 2.03933 236.67 3.05134 236.67 4.278C236.67 5.474 236.226 6.486 235.336 7.314C234.478 8.11133 233.374 8.51 232.024 8.51ZM235.934 11.178V36.846H228.068V11.178H235.934Z" fill="white"/>
<path d="M252.077 37.214C249.838 37.214 247.845 36.8307 246.097 36.064C244.349 35.2973 242.969 34.2547 241.957 32.936C240.945 31.5867 240.377 30.084 240.255 28.428H248.029C248.121 29.3173 248.535 30.038 249.271 30.59C250.007 31.142 250.911 31.418 251.985 31.418C252.966 31.418 253.717 31.234 254.239 30.866C254.791 30.4673 255.067 29.9613 255.067 29.348C255.067 28.612 254.683 28.0753 253.917 27.738C253.15 27.37 251.908 26.9713 250.191 26.542C248.351 26.1127 246.817 25.668 245.591 25.208C244.364 24.7173 243.306 23.966 242.417 22.954C241.527 21.9113 241.083 20.516 241.083 18.768C241.083 17.296 241.481 15.962 242.279 14.766C243.107 13.5393 244.303 12.5733 245.867 11.868C247.461 11.1627 249.347 10.81 251.525 10.81C254.745 10.81 257.275 11.6073 259.115 13.202C260.985 14.7967 262.059 16.9127 262.335 19.55H255.067C254.944 18.6607 254.545 17.9553 253.871 17.434C253.227 16.9127 252.368 16.652 251.295 16.652C250.375 16.652 249.669 16.836 249.179 17.204C248.688 17.5413 248.443 18.0167 248.443 18.63C248.443 19.366 248.826 19.918 249.593 20.286C250.39 20.654 251.617 21.022 253.273 21.39C255.174 21.8807 256.723 22.3713 257.919 22.862C259.115 23.322 260.157 24.0887 261.047 25.162C261.967 26.2047 262.442 27.6153 262.473 29.394C262.473 30.8967 262.043 32.246 261.185 33.442C260.357 34.6073 259.145 35.5273 257.551 36.202C255.987 36.8767 254.162 37.214 252.077 37.214Z" fill="white"/>
<path d="M281.591 30.176V36.846H277.589C274.737 36.846 272.514 36.156 270.919 34.776C269.324 33.3653 268.527 31.0807 268.527 27.922V17.71H265.399V11.178H268.527V4.922H276.393V11.178H281.545V17.71H276.393V28.014C276.393 28.7807 276.577 29.3327 276.945 29.67C277.313 30.0073 277.926 30.176 278.785 30.176H281.591Z" fill="white"/>
<path d="M276.952 53.342C275.092 53.342 273.563 52.8047 272.364 51.73C271.207 50.614 270.628 49.25 270.628 47.638C270.628 45.9847 271.207 44.6 272.364 43.484C273.563 42.368 275.092 41.81 276.952 41.81C278.771 41.81 280.259 42.368 281.416 43.484C282.615 44.6 283.214 45.9847 283.214 47.638C283.214 49.25 282.615 50.614 281.416 51.73C280.259 52.8047 278.771 53.342 276.952 53.342Z" fill="#FEF769"/>
<path d="M286.654 42.802C286.654 40.714 287.074 38.89 287.914 37.33C288.778 35.77 289.966 34.57 291.478 33.73C293.014 32.89 294.766 32.47 296.734 32.47C299.254 32.47 301.354 33.13 303.034 34.45C304.738 35.77 305.854 37.63 306.382 40.03H299.83C299.278 38.494 298.21 37.726 296.626 37.726C295.498 37.726 294.598 38.17 293.926 39.058C293.254 39.922 292.918 41.17 292.918 42.802C292.918 44.434 293.254 45.694 293.926 46.582C294.598 47.446 295.498 47.878 296.626 47.878C298.21 47.878 299.278 47.11 299.83 45.574H306.382C305.854 47.926 304.738 49.774 303.034 51.118C301.33 52.462 299.23 53.134 296.734 53.134C294.766 53.134 293.014 52.714 291.478 51.874C289.966 51.034 288.778 49.834 287.914 48.274C287.074 46.714 286.654 44.89 286.654 42.802Z" fill="white"/>
<path d="M318.819 53.134C316.851 53.134 315.075 52.714 313.491 51.874C311.931 51.034 310.695 49.834 309.783 48.274C308.895 46.714 308.451 44.89 308.451 42.802C308.451 40.738 308.907 38.926 309.819 37.366C310.731 35.782 311.979 34.57 313.563 33.73C315.147 32.89 316.923 32.47 318.891 32.47C320.859 32.47 322.635 32.89 324.219 33.73C325.803 34.57 327.051 35.782 327.963 37.366C328.875 38.926 329.331 40.738 329.331 42.802C329.331 44.866 328.863 46.69 327.927 48.274C327.015 49.834 325.755 51.034 324.147 51.874C322.563 52.714 320.787 53.134 318.819 53.134ZM318.819 47.806C319.995 47.806 320.991 47.374 321.807 46.51C322.647 45.646 323.067 44.41 323.067 42.802C323.067 41.194 322.659 39.958 321.843 39.094C321.051 38.23 320.067 37.798 318.891 37.798C317.691 37.798 316.695 38.23 315.903 39.094C315.111 39.934 314.715 41.17 314.715 42.802C314.715 44.41 315.099 45.646 315.867 46.51C316.659 47.374 317.643 47.806 318.819 47.806Z" fill="white"/>
<path d="M358.229 32.542C360.725 32.542 362.705 33.298 364.169 34.81C365.657 36.322 366.401 38.422 366.401 41.11V52.846H360.281V41.938C360.281 40.642 359.933 39.646 359.237 38.95C358.565 38.23 357.629 37.87 356.429 37.87C355.229 37.87 354.281 38.23 353.585 38.95C352.913 39.646 352.577 40.642 352.577 41.938V52.846H346.457V41.938C346.457 40.642 346.109 39.646 345.413 38.95C344.741 38.23 343.805 37.87 342.605 37.87C341.405 37.87 340.457 38.23 339.761 38.95C339.089 39.646 338.753 40.642 338.753 41.938V52.846H332.597V32.758H338.753V35.278C339.377 34.438 340.193 33.778 341.201 33.298C342.209 32.794 343.349 32.542 344.621 32.542C346.133 32.542 347.477 32.866 348.653 33.514C349.853 34.162 350.789 35.086 351.461 36.286C352.157 35.182 353.105 34.282 354.305 33.586C355.505 32.89 356.813 32.542 358.229 32.542Z" fill="white"/>
</svg>
